<svg version="1" xmlns="http://www.w3.org/2000/svg" width="400" height="400" viewBox="0 0 300.000000 300.000000"><path d="M8.1 4.4C2.8 7.3 3.1.2 3 149.8c0 151.4-.3 143.4 5.5 146 2 .9 35.8 1.2 141.1 1.2 150.6 0 142.6.3 145.2-5.5 1.7-3.8 1.7-279.2 0-283-2.6-5.8 5.4-5.5-145.5-5.5C36 3.1 10.1 3.3 8.1 4.4zM244.2 76c3.5 1.1 8.8 3.5 11.8 5.4 11.4 7.3 12.9 7.2 14.4-.7.8-4.1 1.3-4.7 3.4-4.7 2.3 0 2.4.3 1.8 3.7-.3 2.1-.6 12.9-.6 24V124h-2.4c-2.1 0-2.4-.5-3-6.1-2.8-24.3-16.4-38.3-37-38.1-7.5.1-11.8 1.4-16.8 4.8-14.1 9.8-21.9 35.9-20.4 68.4.7 15.9 1.8 23.3 5.1 33.8 5.5 17.5 17.5 26.7 30.3 23.3 7.6-2.1 8.2-3.9 8.1-23.5 0-10.5-.5-18.4-1.2-20.5-1.7-4.8-5.6-7.3-12.2-7.9-4.8-.4-5.5-.7-5.5-2.6 0-2.1 0-2.1 33-2.1h33v2.2c0 1.6-.6 2.3-2 2.3-1.1 0-2.8 1.2-3.7 2.7-1.6 2.4-1.8 5.8-2.2 27-.3 22.4-.4 24.3-2.1 24.3-1.3 0-1.9-1.1-2.4-3.8-.8-5.1-3.6-7.7-7.3-6.7-1.5.3-7.3 2.6-12.8 5-16.1 7-20.5 8-33.5 7.9-35-.1-58.7-16.4-66.6-45.9-2.5-9.5-3-30.6-.9-40.1 7.7-35 37.9-56.7 76.2-54.8 5.1.2 12 1.3 15.5 2.4zm-131.8 59.3c12.6 32.5 24.1 61.4 25.5 64.2 1.4 2.7 4 5.9 5.8 7 1.8 1.1 3.2 2.8 3.3 3.7 0 1.7-2.2 1.8-33.5 1.8-32.1 0-33.5-.1-33.5-1.9 0-1.5 1-2 5-2.5 5.9-.8 8-2.6 8-7.1 0-1.8-2.9-11.3-6.5-21.1S80 161.5 80 161.3c0-.2-8.9-.2-19.7-.1l-19.7.3-4 11.5c-2.7 8-4.1 13.8-4.4 19-.4 7.1-.3 7.8 2.3 10.8 2 2.4 4 3.4 8.6 4.4 4.6.9 5.9 1.6 5.9 3 0 1.7-1.4 1.8-20 1.8-18.5 0-20-.1-20-1.8 0-1 1.5-2.6 3.6-3.7 4-2.1 8.4-7.9 11.4-15.1 1.1-2.5 11.1-27.9 22.1-56.3 11.1-28.4 20.8-53.3 21.6-55.4l1.5-3.7H89.5l22.9 59.3z"/><path d="M52 132.7c-4.6 12-8.5 22.4-8.8 23-.3 1 3.6 1.3 17.3 1.3 13.7 0 17.6-.3 17.3-1.3-12.3-34-16.4-44.7-16.9-44.7-.3 0-4.3 9.8-8.9 21.7z"/></svg>